This is a stereoscopic 3D rip of Sanctum 3D, for new 3D TVs or computers with Nvidia 3D Vision. Tested with Stereoscopic Player. 

This was originally ripped by L3G3ND,I changed it from mkv to mp4 and the Audio from DTS to AC3 To work on my Lg Cinema 3D TV and it worked


Video
ID : 1
Format : AVC
Format/Info : Advanced Video Codec
Format profile : High@L4.0
Format settings, CABAC : Yes
Format settings, ReFrames : 4 frames
Format settings, GOP : M=2, N=5
Codec ID :MPEG4
Duration : 1h 48mn
Bit rate : 9 443 Kbps
Nominal bit rate : 10 000 Kbps
Width : 1 920 pixels
Height : 1 080 pixels
Display aspect ratio : 16:9
Frame rate mode : Variable
Frame rate : 23.976 fps
Color space : YUV
Chroma subsampling : 4:2:0
Bit depth : 8 bits
Scan type : Progressive
Bits/(Pixel*Frame) : 0.190
Stream size : 7.18 GiB (84%)
Writing library : x264 core 107 r1745 4785e8e
Language : English

Audio
ID : 2
Format : AC3
Format/Info : Digital Theater Systems
Duration : 1h 48mn
Bit rate mode : Constant
Bit rate : 1 510 Kbps
Channel(s) : 6 channels
Channel positions : Front: L C R, Side: L R, LFE
Sampling rate : 48.0 KHz
Bit depth : 24 bits
Compression mode : Lossy
Stream size : 1.15 GiB (14%)
Language : English